<?xml version="1.0" encoding="utf-8"?>
<!-- Generator: Adobe Illustrator 23.0.1, SVG Export Plug-In . SVG Version: 6.00 Build 0)  -->
<svg version="1.1" xmlns="http://www.w3.org/2000/svg" xmlns:xlink="http://www.w3.org/1999/xlink" x="0px" y="0px"
	 viewBox="0 0 95 95" style="enable-background:new 0 0 95 95;" xml:space="preserve">
<g id="Warstwa_2">
</g>
<g id="Warstwa_1">
	<g>
		<path d="M42.5,73.9l-11,1.3c-0.5,0-0.9,0.1-1.3,0.1c-3,0-5.9-1.3-7.9-3.6c-2-2.3-3-5.3-2.6-8.3l1.3-11c0.3-2.3,1.4-4.6,3-6.2
			l35.1-35.1H14.3C6.4,11.1,0,17.5,0,25.4v55.3C0,88.6,6.4,95,14.3,95h55.3c7.9,0,14.3-6.4,14.3-14.3V35.8L48.7,70.9
			C47.1,72.6,44.9,73.7,42.5,73.9z"/>
		<polygon points="82.8,26.1 69,12.2 39,42.1 52.9,56 		"/>
		<path d="M94.1,10.5l-9.6-9.6c-1.2-1.2-3.1-1.2-4.2,0l-5.9,5.9l13.9,13.9l5.9-5.9C95.3,13.6,95.3,11.7,94.1,10.5z"/>
		<path d="M29.5,51.6c-0.5,0.5-0.8,1.1-0.9,1.8l-1.3,11c-0.2,1.9,1.4,3.6,3.3,3.3l11-1.3c0.7-0.1,1.3-0.4,1.8-0.9l4.2-4.2l-14-13.8
			L29.5,51.6z"/>
	</g>
</g>
</svg>
